<svg width="32" height="32" viewBox="0 0 32 32" fill="none" xmlns="http://www.w3.org/2000/svg">
<mask id="mask0" mask-type="alpha" maskUnits="userSpaceOnUse" x="0" y="0" width="32" height="32">
<rect width="32" height="32" fill="#FAE0E0"/>
</mask>
<g mask="url(#mask0)">
<path fill-rule="evenodd" clip-rule="evenodd" d="M5.3335 16.016C5.3335 10.3969 9.82416 5.33334 16.0215 5.33334C22.0802 5.33334 26.6668 10.3008 26.6668 15.984C26.6668 22.5752 21.2908 26.6667 16.0002 26.6667C14.2508 26.6667 12.3095 26.1966 10.7522 25.2779C10.2082 24.9468 9.7495 24.7011 9.16283 24.8934L7.00816 25.5343C6.46416 25.7052 5.9735 25.2779 6.1335 24.7011L6.84816 22.3081C6.9655 21.977 6.94416 21.6244 6.7735 21.3467C5.85616 19.6588 5.3335 17.8107 5.3335 16.016ZM14.6133 16.016C14.6133 16.7745 15.2213 17.3834 15.9786 17.3941C16.7359 17.3941 17.3439 16.7745 17.3439 16.0267C17.3439 15.2682 16.7359 14.6593 15.9786 14.6593C15.2319 14.6486 14.6133 15.2682 14.6133 16.016ZM19.5306 16.0267C19.5306 16.7745 20.1386 17.3941 20.8959 17.3941C21.6533 17.3941 22.2613 16.7745 22.2613 16.0267C22.2613 15.2683 21.6533 14.6593 20.8959 14.6593C20.1386 14.6593 19.5306 15.2683 19.5306 16.0267ZM11.0613 17.3941C10.3146 17.3941 9.69596 16.7745 9.69596 16.0267C9.69596 15.2682 10.304 14.6593 11.0613 14.6593C11.8186 14.6593 12.4266 15.2682 12.4266 16.0267C12.4266 16.7745 11.8186 17.3834 11.0613 17.3941Z" fill="#5CC586"/>
</g>
</svg>
