<svg width="24" height="24" viewBox="0 0 24 24" fill="none" xmlns="http://www.w3.org/2000/svg">
<circle cx="12" cy="12" r="12" fill="#5CC586"/>
<path fill-rule="evenodd" clip-rule="evenodd" d="M5 12.0105C5 8.32298 7.947 5 12.014 5C15.99 5 19 8.25989 19 11.9895C19 16.315 15.472 19 12 19C10.852 19 9.578 18.6915 8.556 18.0886C8.199 17.8713 7.898 17.7101 7.513 17.8363L6.099 18.2569C5.742 18.3691 5.42 18.0886 5.525 17.7101L5.994 16.1397C6.071 15.9224 6.057 15.691 5.945 15.5088C5.343 14.4011 5 13.1883 5 12.0105ZM11.0898 12.0105C11.0898 12.5083 11.4888 12.9079 11.9858 12.9149C12.4828 12.9149 12.8818 12.5083 12.8818 12.0175C12.8818 11.5198 12.4828 11.1202 11.9858 11.1202C11.4958 11.1132 11.0898 11.5198 11.0898 12.0105ZM14.317 12.0176C14.317 12.5083 14.716 12.9149 15.213 12.9149C15.71 12.9149 16.109 12.5083 16.109 12.0176C16.109 11.5198 15.71 11.1202 15.213 11.1202C14.716 11.1202 14.317 11.5198 14.317 12.0176ZM8.75879 12.9149C8.26879 12.9149 7.86279 12.5083 7.86279 12.0175C7.86279 11.5198 8.26179 11.1202 8.75879 11.1202C9.25579 11.1202 9.65479 11.5198 9.65479 12.0175C9.65479 12.5083 9.25579 12.9079 8.75879 12.9149Z" fill="#F2F2F2"/>
</svg>
