<svg id="Capa_1" enable-background="new 0 0 512 512" height="512" viewBox="0 0 512 512" width="512" xmlns="http://www.w3.org/2000/svg"><g><g fill="#00efc0"><path d="m386.002 189.059c-8.366-1.814-21.794-1.171-30.352-1.453-6.066-.061-12.176-.107-18.306-.135 1.82-13.224 3.649-26.516 4.304-39.827 3.934-56.835-14.939-122.874-75.226-141.179-44.313-15.78-99.3-.94-126.087 38.611-24.837 40.625-25.666 91.078-25.373 137.362.046 1.583.086 3.165.127 4.748-37.126 3.202-70.963 13.116-94.652 38.615-7.433-.646-15.261 3.42-16.585 13.063-9.285 71.403.9 142.114 2.682 213.1 6.171 55.113 73.845 57.743 116.694 52.926 51.185-.481 109.921-1.982 160.928-2.171 8.945.248 9.1-13.707.349-13.906-12.12-.597-28.434-1.15-40.486-1.392-46.142-1.748-116.515-1.569-162.389-2.889-23.101-1.714-52.802-11.517-51.154-39.258-.04-5.221.115-10.546.076-15.757-.049-34.888-1.962-70.493-1.898-104.837-.06-27.753 1.482-55.114 5.848-81.766.312-2.466.124-4.684-.442-6.647.382-.415.752-.844 1.145-1.246 10.298-10.665 23.653-16.743 37.791-21.183 29.816-8.828 61.32-8.529 92.157-7.062 31.647 1.627 63.891 5.487 95.553 7.29 31.241.538 63.716 3.556 94.941 4.276 25.079-1.414 50.188 4.308 61.328 29.446 8.212 18.844 4.874 41.203 9.111 62.406 1.592 9.945 17.045 8.993 17.398-1.139.522-9.811 2.031-19.961 2.991-30.971 6.225-40.291-18.886-81.991-60.473-89.025zm-253.507-2.91c-.351-16.501.081-32.948 1.476-49.122 4.513-57.167 24.092-112.511 90.666-111.677 90.325 7.953 88.682 92.041 93.27 162.11-11.401.04-22.79.169-34.019.435-42.823 4.66-99.213-3.586-151.393-1.746z"/><path d="m108.991 373.621c34.989-.506 35.062-51.554.445-52.498-36.435.547-34.559 52.102-.445 52.498z"/><path d="m186.192 320.894c-30.122 1.568-31.794 44.451-2.531 49.762 37.591 4.998 41.271-50.637 2.531-49.762z"/><path d="m265.993 370.426c29.525-5.334 27.795-47.815-2.522-49.532-38.672-.811-35.237 54.678 2.522 49.532z"/></g><path d="m450.843 423.993c17.791-19.268 36.292-37.804 56.445-54.583 13.371-10.344-4.872-29.111-15.613-16.2-4.966 6.254-10.319 12.094-15.739 17.858-12.431 12.475-25.262 25.155-38.31 37.809-18.805-20.929-39.216-40.75-63.685-54.954-7.082-4.244-16.202 3.849-12.641 11.437 10.58 21.745 27.796 39.814 46.53 54.784 3.468 2.432 6.878 4.942 10.244 7.508-20.56 19.542-41.444 38.743-62 56.726-16.333 14.448 7.359 38.093 21.795 21.919 19.363-21.234 38.008-43.297 57.172-64.844 13.751 11.892 26.67 24.769 38.942 38.151 6.635 7.263 13.391 14.693 19.488 22.408 6.884 8.946 20.659-2.095 13.586-10.766-17.548-22.244-37.408-45.428-56.214-67.253z" fill="#ffb7bf"/></g></svg>