<svg width="20" height="18" viewBox="0 0 20 18" fill="none" xmlns="http://www.w3.org/2000/svg">
<path d="M7.82151 11.2621C7.26205 10.6799 6.92151 9.88869 6.92151 9.00116C6.92151 7.22304 8.29535 5.78979 10 5.78979C10.8436 5.78979 11.62 6.14582 12.1697 6.72805" stroke="#6E7286" stroke-width="1.5" stroke-linecap="round" stroke-linejoin="round"/>
<path d="M13.0213 9.57031C12.7955 10.8788 11.807 11.9114 10.5528 12.1487" stroke="#6E7286" stroke-width="1.5" stroke-linecap="round" stroke-linejoin="round"/>
<path d="M4.79946 14.4121C3.25535 13.1482 1.94768 11.3022 1 9.00065C1.95741 6.689 3.27384 4.83278 4.82768 3.55878C6.37178 2.28479 8.1533 1.59302 10 1.59302C11.8574 1.59302 13.6379 2.29493 15.1918 3.57806" stroke="#6E7286" stroke-width="1.5" stroke-linecap="round" stroke-linejoin="round"/>
<path d="M17.2467 5.80908C17.9161 6.73618 18.5048 7.80629 19 9.00016C17.0862 13.6224 13.7041 16.4068 10 16.4068C9.16033 16.4068 8.33233 16.2648 7.53644 15.9879" stroke="#6E7286" stroke-width="1.5" stroke-linecap="round" stroke-linejoin="round"/>
<path d="M17.6742 1L2.32655 17" stroke="#6E7286" stroke-width="1.5" stroke-linecap="round" stroke-linejoin="round"/>
</svg>
