<svg width="24" height="24" viewBox="0 0 24 24" fill="none" xmlns="http://www.w3.org/2000/svg">
<mask id="mask0" mask-type="alpha" maskUnits="userSpaceOnUse" x="0" y="0" width="24" height="24">
<rect width="24" height="24" fill="#C4C4C4"/>
</mask>
<g mask="url(#mask0)">
<path fill-rule="evenodd" clip-rule="evenodd" d="M15.4178 12.0002C15.4178 13.9131 13.887 15.4634 11.9995 15.4634C10.1119 15.4634 8.58215 13.9131 8.58215 12.0002C8.58215 10.0862 10.1119 8.53596 11.9995 8.53596C13.887 8.53596 15.4178 10.0862 15.4178 12.0002Z" stroke="#6E7286" stroke-width="1.5" stroke-linecap="round" stroke-linejoin="round"/>
<path fill-rule="evenodd" clip-rule="evenodd" d="M11.9978 20C16.1146 20 19.88 17.0003 22 12C19.88 6.99973 16.1146 4 11.9978 4H12.0022C7.8854 4 4.12 6.99973 2 12C4.12 17.0003 7.8854 20 12.0022 20H11.9978Z" stroke="#6E7286" stroke-width="1.5" stroke-linecap="round" stroke-linejoin="round"/>
</g>
</svg>
