<svg width="24" height="24" viewBox="0 0 24 24" fill="none" xmlns="http://www.w3.org/2000/svg">
<mask id="mask0" mask-type="alpha" maskUnits="userSpaceOnUse" x="0" y="0" width="24" height="24">
<rect width="24" height="24" fill="#C4C4C4"/>
</mask>
<g mask="url(#mask0)">
<path fill-rule="evenodd" clip-rule="evenodd" d="M12 2C17.5228 2 22 6.47715 22 12C22 17.5228 17.5228 22 12 22C6.47715 22 2 17.5228 2 12C2 6.47715 6.47715 2 12 2ZM20.1101 13.0876C19.1463 13.5889 17.877 14.0081 16.4357 14.2971C16.2308 16.3899 15.7462 18.2372 15.0413 19.5979C17.7314 18.5201 19.716 16.055 20.1101 13.0876ZM14.7148 12.7313C14.723 12.4906 14.7273 12.2467 14.7273 12C14.7273 7.43999 13.2785 3.81818 12 3.81818C10.7214 3.81818 9.27271 7.43999 9.27271 12C9.27271 12.2609 9.27745 12.5187 9.28663 12.7729C10.1394 12.8621 11.0506 12.9091 11.9998 12.9091C12.9345 12.9091 13.8515 12.8432 14.7148 12.7313ZM16.542 12.4128C16.5443 12.2758 16.5455 12.1382 16.5455 12C16.5455 8.97489 15.9949 6.24304 15.0413 4.40213C17.7469 5.48614 19.7388 7.97338 20.1167 10.9636C19.6891 11.4438 18.3398 12.0142 16.542 12.4128ZM9.43535 14.6158C10.2508 14.6892 11.1098 14.7273 11.9998 14.7273C12.8756 14.7273 13.7385 14.6776 14.5684 14.5856C14.1584 17.8561 13.0245 20.1818 12 20.1818C10.9786 20.1818 9.84858 17.8704 9.43535 14.6158ZM7.45959 12.5002C6.93774 12.3961 6.45139 12.2735 6.00731 12.1341C4.8798 11.78 4.14291 11.346 3.87778 11.0069C4.24195 7.9973 6.24005 5.49125 8.9587 4.40206C8.00506 6.24297 7.45455 8.97485 7.45455 12C7.45455 12.1677 7.45624 12.3345 7.45959 12.5002ZM7.57195 14.3735C7.78106 16.4348 8.26244 18.2539 8.9587 19.5979C6.31524 18.5389 4.35303 16.1402 3.91173 13.2417C4.86037 13.7357 6.11211 14.1198 7.57195 14.3735Z" fill="#252836"/>
</g>
</svg>
