<svg width="18" height="18" viewBox="0 0 18 18" fill="none" xmlns="http://www.w3.org/2000/svg">
<path fill-rule="evenodd" clip-rule="evenodd" d="M8.99984 0.666664C13.6022 0.666664 17.3332 4.39762 17.3332 9C17.3332 13.5968 13.6112 17.3243 9.01646 17.3333L9.00093 17.3334L8.98611 17.3333C4.39005 17.3259 0.666504 13.5978 0.666504 9C0.666504 4.39762 4.39746 0.666664 8.99984 0.666664ZM2.26053 10.0352C2.62842 12.4506 4.26368 14.4494 6.46661 15.3318C5.88636 14.2118 5.48519 12.6959 5.31091 10.9782C4.09437 10.7668 3.05119 10.4469 2.26053 10.0352ZM5.21727 9.41711C5.21446 9.2789 5.21305 9.13984 5.21305 9.00004C5.21305 6.47905 5.67183 4.20245 6.46655 2.66836C4.2006 3.57606 2.53528 5.66489 2.23207 8.17333C2.45361 8.45586 3.06738 8.81704 4.00597 9.11179C4.37633 9.22809 4.78199 9.33032 5.21727 9.41711ZM6.73996 9.64429C6.73231 9.43239 6.72835 9.21752 6.72835 9.00008C6.72835 5.20008 7.93563 2.1819 9.00108 2.1819C10.0665 2.1819 11.2738 5.20008 11.2738 9.00008C11.2738 9.20557 11.2703 9.40877 11.2634 9.60934C10.5437 9.70261 9.77904 9.75761 8.99972 9.75761C8.20914 9.75761 7.45024 9.71849 6.73996 9.64429ZM6.8639 11.18C7.20827 13.8921 8.14993 15.8183 9.00108 15.8183C9.85489 15.8183 10.7998 13.8801 11.1415 11.1545C10.4495 11.2313 9.73 11.2728 8.99972 11.2728C8.25846 11.2728 7.54311 11.2411 6.8639 11.18ZM12.6973 10.9141C12.5266 12.6581 12.1228 14.1976 11.5354 15.3315C13.7772 14.4332 15.4309 12.3789 15.7592 9.90591C14.9562 10.3237 13.8984 10.6732 12.6973 10.9141ZM15.7645 8.13561C15.4493 5.64423 13.7897 3.57197 11.5355 2.66866C12.3301 4.20275 12.7888 6.47921 12.7888 9.00004C12.7888 9.11515 12.7879 9.22975 12.786 9.3438C14.2845 9.01145 15.409 8.53583 15.7645 8.13561Z" fill="#252836"/>
</svg>
