<svg width="559" height="722" viewBox="0 0 559 722" fill="none" xmlns="http://www.w3.org/2000/svg">
<path d="M193.316 78.232L174.549 16" stroke="#EAEDEE" stroke-width="4"/>
<path d="M151.791 111.907L62.7897 41.312" stroke="#EAEDEE" stroke-width="4"/>
<path d="M101.366 140.844L34.9105 123.971" stroke="#EAEDEE" stroke-width="4"/>
<path d="M479.03 30.24C484.577 30.24 489.03 31.76 492.39 34.8C495.804 37.7867 497.51 41.92 497.51 47.2C497.51 52.4267 495.83 56.4267 492.47 59.2C489.11 61.92 484.657 63.28 479.11 63.28L478.79 69.44H468.95L468.55 55.84H472.15C476.79 55.84 480.364 55.2267 482.87 54C485.377 52.7733 486.63 50.5333 486.63 47.28C486.63 44.9333 485.937 43.0667 484.55 41.68C483.217 40.2933 481.377 39.6 479.03 39.6C476.577 39.6 474.657 40.2667 473.27 41.6C471.937 42.9333 471.27 44.7733 471.27 47.12H460.71C460.657 43.8667 461.35 40.96 462.79 38.4C464.23 35.84 466.337 33.84 469.11 32.4C471.937 30.96 475.244 30.24 479.03 30.24ZM473.83 88.56C471.804 88.56 470.124 87.9467 468.79 86.72C467.51 85.44 466.87 83.8667 466.87 82C466.87 80.1333 467.51 78.5867 468.79 77.36C470.124 76.08 471.804 75.44 473.83 75.44C475.804 75.44 477.43 76.08 478.71 77.36C479.99 78.5867 480.63 80.1333 480.63 82C480.63 83.8667 479.99 85.44 478.71 86.72C477.43 87.9467 475.804 88.56 473.83 88.56Z" fill="#EDF2F4"/>
<path d="M465.911 210.5L225.411 324.5L203.911 333.5L301.911 348.5L468.911 239L465.911 210.5Z" fill="#F89C8B"/>
<path d="M281.41 194C281.01 177.6 292.91 168.167 298.91 165.5C319.91 160.5 364.91 158 375.91 175C386.91 192 381.41 231.5 385.41 247.5C388.61 260.3 409.744 290.167 419.91 303.5C410.577 307.5 388.31 316.6 373.91 321C359.51 325.4 332.91 328.5 321.41 329.5C322.077 326 323.81 316.2 325.41 305C327.01 293.8 326.077 269 325.41 258L295.41 267L293.91 246V229.5C292.744 230.333 288.91 232 282.91 232C276.91 232 277.077 226.333 277.91 223.5C279.244 220.5 281.81 210.4 281.41 194Z" fill="#FFB5A7"/>
<mask id="mask0" mask-type="alpha" maskUnits="userSpaceOnUse" x="277" y="161" width="143" height="169">
<path d="M281.41 194C281.01 177.6 292.91 168.167 298.91 165.5C319.91 160.5 364.91 158 375.91 175C386.91 192 381.41 231.5 385.41 247.5C388.61 260.3 409.744 290.167 419.91 303.5C410.577 307.5 388.31 316.6 373.91 321C359.51 325.4 332.91 328.5 321.41 329.5C322.077 326 323.81 316.2 325.41 305C327.01 293.8 326.077 269 325.41 258L295.41 267L293.91 246V229.5C292.744 230.333 288.91 232 282.91 232C276.91 232 277.077 226.333 277.91 223.5C279.244 220.5 281.81 210.4 281.41 194Z" fill="#FFB5A7" fill-opacity="0.32"/>
</mask>
<g mask="url(#mask0)">
<path d="M345.41 213.5C340.012 224.264 403.134 327.102 403.91 330L431.41 310L379.41 198C368.41 191 349.729 204.889 345.41 213.5Z" fill="#DC8F81"/>
</g>
<path d="M267.91 126C269.51 101.2 291.244 83.3333 301.91 77.5C348.31 61.5 369.244 88.1667 373.91 103.5C380.91 98.5 397.51 90.4 407.91 98C418.31 105.6 417.577 118.167 415.91 123.5C417.91 122.833 423.81 121.9 431.41 123.5C440.91 125.5 454.91 129 457.41 158C459.91 187 439.91 197.5 442.41 199.5C444.91 201.5 459.41 220 447.41 239.5C435.41 259 404.91 263 385.91 253.5C370.71 245.9 368.577 220.667 369.41 209C369.41 209.167 368.11 209.9 362.91 211.5C356.41 213.5 351.91 208 352.91 209.5C353.91 211 358.91 254.5 349.91 274C340.91 293.5 310.91 292.5 300.91 292C290.91 291.5 272.91 282.5 276.41 264.5C279.91 246.5 294.41 243 300.91 242.5C307.41 242 323.91 243 331.41 239.5C338.91 236 334.91 211.5 334.91 206.5C334.91 202.5 335.577 197.167 335.91 195C335.41 195.5 331.31 196.8 318.91 198C303.41 199.5 293.91 187 292.91 182.5C292.11 178.9 293.244 173.333 293.91 171C293.744 171 292.81 171.2 290.41 172C288.01 172.8 285.077 171.667 283.91 171C277.91 166.333 266.31 150.8 267.91 126Z" fill="#2B2D42"/>
<path d="M468.951 181.631L472.91 211.534L449.648 236L448.658 209.903H425.89L423.91 198.485H433.314V180L468.951 181.631Z" fill="#F89C8B"/>
<mask id="mask1" mask-type="alpha" maskUnits="userSpaceOnUse" x="423" y="180" width="44" height="56">
<path d="M463.91 181.631L466.41 213.709L449.91 236L448.667 209.903H425.91L423.91 198.485H433.296V180L463.91 181.631Z" fill="#F4A697"/>
</mask>
<g mask="url(#mask1)">
<path d="M431.91 197C432.31 197 442.077 197 446.91 197" stroke="#F0664D" stroke-width="3"/>
<path d="M446.91 212C447.31 212 459.577 212 464.41 212" stroke="#F0664D" stroke-width="3"/>
</g>
<ellipse cx="296.41" cy="210.5" rx="3.5" ry="7.5" fill="#2B2D42"/>
<path d="M289.91 193.5C290.91 193.5 299.91 204 318.41 196" stroke="#2B2D42" stroke-width="4" stroke-linecap="round" stroke-linejoin="round"/>
<path d="M352.41 240C355.41 238.5 365.91 237 368.41 226C370.41 217.2 368.577 210.667 367.41 208.5" stroke="#2B2D42" stroke-width="3" stroke-linecap="round" stroke-linejoin="round"/>
<path d="M360.41 216C361.077 217 363.41 223 358.41 225.5" stroke="#2B2D42" stroke-width="2" stroke-linecap="round" stroke-linejoin="round"/>
<path d="M281.911 499C283.088 471.536 305.847 381.378 317.727 337.515C318.074 336.236 319.541 335.679 320.708 336.306C340.14 346.751 362.029 343.479 386.911 334C416.703 322.65 416.529 317.563 423.614 310.276C424.332 309.538 425.483 309.535 426.206 310.268C428.954 313.053 435.494 319.91 446.911 331C464.411 348 505.411 403.5 515.411 459.5C525.411 515.5 547.411 560 556.411 617.5C565.411 675 541.411 692 510.911 704.5C480.411 717 300.411 733.5 264.411 710C228.411 686.5 243.411 636 264.411 591C285.411 546 280.411 534 281.911 499Z" fill="#FB9300"/>
<path d="M318.509 335.392L320.464 330.749C321.045 329.368 322.343 328.43 323.835 328.3C333.57 327.45 352.482 325.299 366.411 322C380.518 318.659 404.619 309.029 417.205 303.664C418.82 302.976 420.69 303.41 421.833 304.743L424.437 307.78C425.351 308.847 425.534 310.279 424.629 311.354C422.825 313.497 418.91 317.39 411.411 323.5C397.911 334.5 365.411 342 347.411 343.5C335.294 344.51 324.924 342.286 319.755 339.57C318.254 338.781 317.851 336.955 318.509 335.392Z" fill="#EDF2F4"/>
<circle cx="208.833" cy="174.861" r="31.8461" transform="rotate(0.0343666 208.833 174.861)" stroke="#03071E" stroke-width="4"/>
<circle cx="198.16" cy="208.742" r="7.46953" transform="rotate(0.0343666 198.16 208.742)" stroke="#FB5607" stroke-width="5"/>
<path d="M194.566 216.715L185.774 247.416" stroke="#FB5607" stroke-width="5" stroke-linecap="round"/>
<path d="M186.238 246.427L198.869 248.414" stroke="#FB5607" stroke-width="5" stroke-linecap="round"/>
<path d="M189.044 237.847L199.338 239.449" stroke="#FB5607" stroke-width="5" stroke-linecap="round"/>
<path d="M225.724 207.249C226.925 211.196 224.699 215.368 220.753 216.569C216.807 217.769 212.634 215.543 211.434 211.595C210.233 207.648 212.46 203.476 216.406 202.276C220.352 201.076 224.524 203.302 225.724 207.249Z" stroke="#C9184A" stroke-width="5"/>
<path d="M217.466 218.097L218.009 250.027" stroke="#C9184A" stroke-width="5" stroke-linecap="round"/>
<path d="M218.164 248.945L230.824 247.164" stroke="#C9184A" stroke-width="5" stroke-linecap="round"/>
<path d="M218.347 239.921L228.659 238.452" stroke="#C9184A" stroke-width="5" stroke-linecap="round"/>
<path d="M241.675 189.965C244.343 193.112 243.955 197.825 240.809 200.492C237.664 203.16 232.95 202.772 230.282 199.625C227.614 196.479 228.002 191.766 231.148 189.098C234.294 186.431 239.007 186.819 241.675 189.965Z" stroke="#90BE6D" stroke-width="5"/>
<path d="M238.4 203.199L251.568 232.293" stroke="#90BE6D" stroke-width="5" stroke-linecap="round"/>
<path d="M251.281 231.238L262.195 224.579" stroke="#90BE6D" stroke-width="5" stroke-linecap="round"/>
<path d="M247.867 222.882L256.75 217.442" stroke="#90BE6D" stroke-width="5" stroke-linecap="round"/>
<path d="M198.436 205.09C201.316 206.188 210.479 208.11 216.938 206.004" stroke="#03071E" stroke-width="4" stroke-linecap="round"/>
<path d="M227.32 201.046C229.578 199.242 233.189 196.537 235.9 192.026" stroke="#03071E" stroke-width="4" stroke-linecap="round"/>
<path d="M38.2811 362.54L207.111 434.477L211.267 435.465C213.409 428.475 218.931 411.518 223.879 399.605C228.827 387.692 233.171 353.412 234.724 337.761L123.18 304.459L163.717 174.363C175.768 172.675 200.81 168.777 204.578 166.689C209.289 164.079 207.112 158.81 206.424 153.353C205.873 148.988 202.44 147.304 200.793 147.008L193.642 147.91L192.516 138.981C191.765 133.028 185.872 131.587 183.019 131.611C178.533 132.009 166.499 133.292 154.247 135.241C141.994 137.189 130.968 151.784 126.986 158.838C98.8592 203.542 39.6979 298.661 28.0642 321.496C16.4305 344.332 30.0281 358.374 38.2811 362.54Z" fill="#FFB5A7"/>
<mask id="mask2" mask-type="alpha" maskUnits="userSpaceOnUse" x="0" y="128" width="247" height="330">
<path d="M38.2811 362.54L207.111 434.477L211.267 435.465C213.409 428.475 218.931 411.518 223.879 399.605C228.827 387.692 233.171 353.412 234.724 337.761L123.18 304.459L163.717 174.363C175.768 172.675 200.81 168.777 204.578 166.689C209.289 164.079 207.112 158.81 206.424 153.353C205.873 148.988 202.44 147.304 200.793 147.008L193.642 147.91L192.516 138.981C191.765 133.028 185.872 131.587 183.019 131.611C178.533 132.009 166.499 133.292 154.247 135.241C141.994 137.189 130.968 151.784 126.986 158.838C98.8592 203.542 39.6979 298.661 28.0642 321.496C16.4305 344.332 30.0281 358.374 38.2811 362.54Z" fill="#FFB5A7"/>
</mask>
<g mask="url(#mask2)">
<path d="M120.969 316.79L126.931 299.212L143.087 307.834L120.969 316.79Z" fill="#DC8F81" stroke="#DC8F81" stroke-width="4" stroke-linecap="round"/>
<path d="M201.585 146.136L175.279 149.319" stroke="#DC8F81" stroke-width="3" stroke-linecap="round"/>
</g>
<path d="M320.874 338.982L228.321 334.624C229.159 334.664 229.084 342.429 222.076 373.173C215.068 403.917 203.201 428.908 198.143 437.56L337.166 467.644L360.532 353.669L320.874 338.982Z" fill="#FB9300"/>
<mask id="mask3" mask-type="alpha" maskUnits="userSpaceOnUse" x="190" y="325" width="179" height="153">
<path d="M320.874 338.982L228.321 334.624C229.159 334.664 229.084 342.429 222.076 373.173C215.068 403.917 203.201 428.908 198.143 437.56L337.166 467.644L360.532 353.669L320.874 338.982Z" fill="#C4C4C4"/>
</mask>
<g mask="url(#mask3)">
<path d="M210.867 447.17C232.878 418.714 243.69 357.746 245.061 330.41L202.204 326.982L174.061 437.291C178.014 452.713 188.856 475.626 210.867 447.17Z" fill="#EDF2F4"/>
</g>
</svg>
