<svg width="18" height="18" viewBox="0 0 18 18" fill="none" xmlns="http://www.w3.org/2000/svg">
<path fill-rule="evenodd" clip-rule="evenodd" d="M13.1756 11.1677C13.5206 11.1677 13.8006 10.8877 13.8006 10.5427V8.99934C13.8006 8.65434 13.5206 8.37434 13.1756 8.37434H8.4323C8.1623 7.48517 7.34397 6.83184 6.3673 6.83184C5.1723 6.83184 4.1998 7.80434 4.1998 8.99934C4.1998 10.1952 5.1723 11.1677 6.3673 11.1677C7.34397 11.1677 8.1623 10.5143 8.4323 9.62434H10.1923V10.5427C10.1923 10.8877 10.4723 11.1677 10.8173 11.1677C11.1623 11.1677 11.4423 10.8877 11.4423 10.5427V9.62434H12.5506V10.5427C12.5506 10.8877 12.8306 11.1677 13.1756 11.1677ZM5.38817 0.666016H12.6123C15.4357 0.666016 17.3332 2.64768 17.3332 5.59685V12.4027C17.3332 15.3518 15.4357 17.3327 12.6115 17.3327H5.38817C2.564 17.3327 0.666504 15.3518 0.666504 12.4027V5.59685C0.666504 2.64768 2.564 0.666016 5.38817 0.666016ZM5.44906 9.00009C5.44906 8.49343 5.86156 8.08176 6.36739 8.08176C6.87323 8.08176 7.28573 8.49343 7.28573 9.00009C7.28573 9.50593 6.87323 9.91759 6.36739 9.91759C5.86156 9.91759 5.44906 9.50593 5.44906 9.00009Z" fill="#252836" fill-opacity="0.9"/>
</svg>
