<svg width="40" height="40" viewBox="0 0 40 40" fill="none" xmlns="http://www.w3.org/2000/svg">
<mask id="mask0" mask-type="alpha" maskUnits="userSpaceOnUse" x="0" y="0" width="40" height="40">
<rect width="40" height="40" fill="#F3EFEF"/>
</mask>
<g mask="url(#mask0)">
<circle cx="20" cy="20" r="16" fill="#B6BCB8"/>
<mask id="mask1" mask-type="alpha" maskUnits="userSpaceOnUse" x="8" y="9" width="24" height="24">
<rect x="8" y="9" width="24" height="24" fill="#FAE0E0"/>
</mask>
<g mask="url(#mask1)">
<path fill-rule="evenodd" clip-rule="evenodd" d="M23.0797 13.0001C23.5844 13.0001 24.0884 13.0704 24.5676 13.2291C27.5204 14.1764 28.5844 17.3738 27.6956 20.1685C27.1916 21.5966 26.3676 22.9 25.2884 23.965C23.7436 25.4413 22.0485 26.7519 20.2237 27.8808L20.0237 28L19.8157 27.8729C17.9845 26.7519 16.2797 25.4413 14.7205 23.9571C13.6486 22.8921 12.8238 21.5966 12.3118 20.1685C11.4078 17.3738 12.4718 14.1764 15.4565 13.2125C15.6885 13.1335 15.9277 13.0783 16.1677 13.0475H16.2637C16.4885 13.0151 16.7117 13.0001 16.9357 13.0001H17.0237C17.5277 13.0151 18.0157 13.102 18.4885 13.2607H18.5357C18.5677 13.2757 18.5917 13.2922 18.6077 13.3072C18.7845 13.3633 18.9517 13.4264 19.1117 13.5133L19.4157 13.6475C19.4891 13.6862 19.5716 13.7452 19.6429 13.7963C19.688 13.8286 19.7287 13.8578 19.7597 13.8764C19.7727 13.884 19.786 13.8917 19.7994 13.8994C19.868 13.9389 19.9394 13.9801 19.9997 14.0256C20.8885 13.3554 21.9677 12.9922 23.0797 13.0001ZM25.2075 18.6843C25.5355 18.6756 25.8155 18.4159 25.8395 18.0835V17.9896C25.8635 16.8835 25.1843 15.8817 24.1515 15.4948C23.8235 15.3835 23.4635 15.558 23.3435 15.8896C23.2315 16.2211 23.4075 16.5843 23.7435 16.7019C24.2563 16.8914 24.5995 17.3896 24.5995 17.9414V17.9659C24.5843 18.1467 24.6395 18.3211 24.7515 18.4553C24.8635 18.5896 25.0315 18.6677 25.2075 18.6843Z" fill="#F7F7F7"/>
</g>
</g>
</svg>
