<svg width="14" height="16" viewBox="0 0 14 16" fill="none" xmlns="http://www.w3.org/2000/svg">
<path fill-rule="evenodd" clip-rule="evenodd" d="M12.2503 5.16522C12.2503 6.11974 12.5003 6.68234 13.0503 7.33068C13.4671 7.80832 13.6003 8.42144 13.6003 9.08662C13.6003 9.75103 13.384 10.3818 12.9508 10.8938C12.3835 11.5077 11.5836 11.8996 10.7672 11.9678C9.58406 12.0696 8.40022 12.1553 7.20067 12.1553C6.00036 12.1553 4.81727 12.104 3.63418 11.9678C2.81701 11.8996 2.01706 11.5077 1.45058 10.8938C1.01731 10.3818 0.800293 9.75103 0.800293 9.08662C0.800293 8.42144 0.934242 7.80832 1.35031 7.33068C1.91753 6.68234 2.15101 6.11974 2.15101 5.16522V4.84144C2.15101 3.56314 2.4668 2.72727 3.11709 1.909C4.08392 0.715665 5.63369 -3.05176e-05 7.16699 -3.05176e-05H7.23434C8.80057 -3.05176e-05 10.4005 0.75011 11.3508 1.99473C11.9675 2.79616 12.2503 3.59682 12.2503 4.84144V5.16522ZM4.99736 13.7263C4.99736 13.3436 5.34533 13.1683 5.66711 13.0933C6.04351 13.0129 8.33711 13.0129 8.71352 13.0933C9.03529 13.1683 9.38326 13.3436 9.38326 13.7263C9.36455 14.0906 9.15278 14.4137 8.86019 14.6188C8.48079 14.9173 8.03554 15.1064 7.57008 15.1745C7.31266 15.2082 7.05973 15.209 6.81129 15.1745C6.34509 15.1064 5.89984 14.9173 5.52119 14.618C5.22785 14.4137 5.01607 14.0906 4.99736 13.7263Z" fill="#252836" fill-opacity="0.9"/>
</svg>
