<svg width="40" height="40" viewBox="0 0 40 40" fill="none" xmlns="http://www.w3.org/2000/svg">
<mask id="mask0" mask-type="alpha" maskUnits="userSpaceOnUse" x="0" y="0" width="40" height="40">
<circle cx="20" cy="20" r="20" fill="#FAFAFA"/>
</mask>
<g mask="url(#mask0)">
<mask id="mask1" mask-type="alpha" maskUnits="userSpaceOnUse" x="8" y="8" width="24" height="24">
<rect x="8" y="8" width="24" height="24" fill="#EEEAEA"/>
</mask>
<g mask="url(#mask1)">
<circle cx="20" cy="20" r="12" fill="#FAFAFA"/>
<path fill-rule="evenodd" clip-rule="evenodd" d="M25.6289 17.4371C25.6289 18.4418 25.8828 19.034 26.4414 19.7165C26.8647 20.2192 27 20.8646 27 21.5648C27 22.2642 26.7804 22.9281 26.3403 23.4671C25.7642 24.1133 24.9518 24.5259 24.1226 24.5976C22.921 24.7047 21.7187 24.795 20.5004 24.795C19.2813 24.795 18.0797 24.741 16.8782 24.5976C16.0482 24.5259 15.2358 24.1133 14.6605 23.4671C14.2204 22.9281 14 22.2642 14 21.5648C14 20.8646 14.136 20.2192 14.5586 19.7165C15.1347 19.034 15.3718 18.4418 15.3718 17.4371V17.0962C15.3718 15.7507 15.6925 14.8708 16.353 14.0095C17.3349 12.7534 18.9089 12 20.4662 12H20.5346C22.1253 12 23.7502 12.7896 24.7154 14.0997C25.3417 14.9433 25.6289 15.7861 25.6289 17.0962V17.4371ZM18.2622 26.4487C18.2622 26.0458 18.6156 25.8613 18.9424 25.7823C19.3247 25.6977 21.6541 25.6977 22.0364 25.7823C22.3632 25.8613 22.7166 26.0458 22.7166 26.4487C22.6976 26.8322 22.4825 27.1722 22.1854 27.3881C21.8001 27.7024 21.3478 27.9014 20.8751 27.9731C20.6137 28.0086 20.3568 28.0094 20.1045 27.9731C19.631 27.9014 19.1788 27.7024 18.7942 27.3873C18.4963 27.1722 18.2812 26.8322 18.2622 26.4487Z" fill="#42AA8B"/>
</g>
</g>
<circle cx="28" cy="8" r="7" fill="#F0338E"/>
<circle cx="28" cy="8" r="5.25" fill="#F0338E"/>
</svg>
