<!-- <svg width="24" height="24" viewBox="0 0 24 24" fill="none" xmlns="http://www.w3.org/2000/svg">
<mask id="mask0" style="mask-type:alpha" maskUnits="userSpaceOnUse" x="0" y="0" width="24" height="24">
<rect width="24" height="24" fill="#EEEAEA"/>
</mask>
<g mask="url(#mask0)">
<circle cx="12" cy="12" r="12" fill="#F2F2F2"/>
<path fill-rule="evenodd" clip-rule="evenodd" d="M16.8399 9.75743C16.8399 10.6366 17.0547 11.1548 17.5273 11.7519C17.8855 12.1918 18 12.7566 18 13.3692C18 13.9812 17.8141 14.5621 17.4418 15.0338C16.9543 15.5992 16.2669 15.9601 15.5653 16.0229C14.5486 16.1167 13.5312 16.1956 12.5003 16.1956C11.4688 16.1956 10.4521 16.1484 9.43537 16.0229C8.73312 15.9601 8.04566 15.5992 7.55884 15.0338C7.1865 14.5621 7 13.9812 7 13.3692C7 12.7566 7.11511 12.1918 7.47267 11.7519C7.96013 11.1548 8.16077 10.6366 8.16077 9.75743V9.45921C8.16077 8.28184 8.43215 7.51196 8.991 6.7583C9.82187 5.65919 11.1537 5 12.4714 5H12.5293C13.8752 5 15.2502 5.69091 16.0669 6.83727C16.5968 7.57541 16.8399 8.31286 16.8399 9.45921V9.75743ZM10.6064 17.6426C10.6064 17.2901 10.9055 17.1286 11.182 17.0595C11.5055 16.9855 13.4765 16.9855 13.8 17.0595C14.0765 17.1286 14.3756 17.2901 14.3756 17.6426C14.3595 17.9782 14.1775 18.2757 13.9261 18.4646C13.6 18.7396 13.2174 18.9137 12.8174 18.9765C12.5962 19.0075 12.3788 19.0082 12.1653 18.9765C11.7646 18.9137 11.382 18.7396 11.0566 18.4639C10.8045 18.2757 10.6225 17.9782 10.6064 17.6426Z" fill="#42AA8B"/>
</g>
</svg> -->
<svg width="24" height="24" viewBox="0 0 24 24" fill="none" xmlns="http://www.w3.org/2000/svg">
<mask id="mask0_1121_1821" style="mask-type:alpha" maskUnits="userSpaceOnUse" x="0" y="0" width="24" height="24">
<rect width="24" height="24" fill="#EEEAEA"/>
</mask>
<g mask="url(#mask0_1121_1821)">
<circle cx="12" cy="12" r="12" fill="#F2F2F2"/>
<path fill-rule="evenodd" clip-rule="evenodd" d="M16.8399 9.75743C16.8399 10.6366 17.0547 11.1548 17.5273 11.7519C17.8855 12.1918 18 12.7566 18 13.3692C18 13.9812 17.8141 14.5621 17.4418 15.0338C16.9543 15.5992 16.2669 15.9601 15.5653 16.0229C14.5486 16.1167 13.5312 16.1956 12.5003 16.1956C11.4688 16.1956 10.4521 16.1484 9.43537 16.0229C8.73312 15.9601 8.04566 15.5992 7.55884 15.0338C7.1865 14.5621 7 13.9812 7 13.3692C7 12.7566 7.11511 12.1918 7.47267 11.7519C7.96013 11.1548 8.16077 10.6366 8.16077 9.75743V9.45921C8.16077 8.28184 8.43215 7.51196 8.991 6.7583C9.82187 5.65919 11.1537 5 12.4714 5H12.5293C13.8752 5 15.2502 5.69091 16.0669 6.83727C16.5968 7.57541 16.8399 8.31286 16.8399 9.45921V9.75743ZM10.6064 17.6426C10.6064 17.2901 10.9055 17.1286 11.182 17.0595C11.5055 16.9855 13.4765 16.9855 13.8 17.0595C14.0765 17.1286 14.3756 17.2901 14.3756 17.6426C14.3595 17.9782 14.1775 18.2757 13.9261 18.4646C13.6 18.7396 13.2174 18.9137 12.8174 18.9765C12.5962 19.0075 12.3788 19.0082 12.1653 18.9765C11.7646 18.9137 11.382 18.7396 11.0566 18.4639C10.8045 18.2757 10.6225 17.9782 10.6064 17.6426Z" fill="#FF3B30"/>
</g>
</svg>
