<!-- <svg width="40" height="40" viewBox="0 0 40 40" fill="none" xmlns="http://www.w3.org/2000/svg">
<mask id="mask0" mask-type="alpha" maskUnits="userSpaceOnUse" x="0" y="0" width="40" height="40">
<circle cx="20" cy="20" r="20" fill="#FAFAFA"/>
</mask>
<g mask="url(#mask0)">
<mask id="mask1" mask-type="alpha" maskUnits="userSpaceOnUse" x="8" y="8" width="24" height="24">
<rect x="8" y="8" width="24" height="24" fill="#EEEAEA"/>
</mask>
<g mask="url(#mask1)">
<circle cx="20" cy="20" r="12" fill="#FAFAFA"/>
<path fill-rule="evenodd" clip-rule="evenodd" d="M25.6289 17.4371C25.6289 18.4418 25.8828 19.034 26.4414 19.7165C26.8647 20.2192 27 20.8646 27 21.5648C27 22.2642 26.7804 22.9281 26.3403 23.4671C25.7642 24.1133 24.9518 24.5259 24.1226 24.5976C22.921 24.7047 21.7187 24.795 20.5004 24.795C19.2813 24.795 18.0797 24.741 16.8782 24.5976C16.0482 24.5259 15.2358 24.1133 14.6605 23.4671C14.2204 22.9281 14 22.2642 14 21.5648C14 20.8646 14.136 20.2192 14.5586 19.7165C15.1347 19.034 15.3718 18.4418 15.3718 17.4371V17.0962C15.3718 15.7507 15.6925 14.8708 16.353 14.0095C17.3349 12.7534 18.9089 12 20.4662 12H20.5346C22.1253 12 23.7502 12.7896 24.7154 14.0997C25.3417 14.9433 25.6289 15.7861 25.6289 17.0962V17.4371ZM18.2622 26.4487C18.2622 26.0458 18.6156 25.8613 18.9424 25.7823C19.3247 25.6977 21.6541 25.6977 22.0364 25.7823C22.3632 25.8613 22.7166 26.0458 22.7166 26.4487C22.6976 26.8322 22.4825 27.1722 22.1854 27.3881C21.8001 27.7024 21.3478 27.9014 20.8751 27.9731C20.6137 28.0086 20.3568 28.0094 20.1045 27.9731C19.631 27.9014 19.1788 27.7024 18.7942 27.3873C18.4963 27.1722 18.2812 26.8322 18.2622 26.4487Z" fill="#42AA8B"/>
</g>
</g>
<circle cx="28" cy="8" r="7" fill="#F0338E"/>
<circle cx="28" cy="8" r="5.25" fill="#F0338E"/>
</svg> -->
<svg width="24" height="24" viewBox="0 0 24 24" fill="none" xmlns="http://www.w3.org/2000/svg">
<mask id="mask0_1121_1821" style="mask-type:alpha" maskUnits="userSpaceOnUse" x="0" y="0" width="24" height="24">
<rect width="24" height="24" fill="#EEEAEA"/>
</mask>
<g mask="url(#mask0_1121_1821)">
<circle cx="12" cy="12" r="12" fill="#F2F2F2"/>
<path fill-rule="evenodd" clip-rule="evenodd" d="M16.8399 9.75743C16.8399 10.6366 17.0547 11.1548 17.5273 11.7519C17.8855 12.1918 18 12.7566 18 13.3692C18 13.9812 17.8141 14.5621 17.4418 15.0338C16.9543 15.5992 16.2669 15.9601 15.5653 16.0229C14.5486 16.1167 13.5312 16.1956 12.5003 16.1956C11.4688 16.1956 10.4521 16.1484 9.43537 16.0229C8.73312 15.9601 8.04566 15.5992 7.55884 15.0338C7.1865 14.5621 7 13.9812 7 13.3692C7 12.7566 7.11511 12.1918 7.47267 11.7519C7.96013 11.1548 8.16077 10.6366 8.16077 9.75743V9.45921C8.16077 8.28184 8.43215 7.51196 8.991 6.7583C9.82187 5.65919 11.1537 5 12.4714 5H12.5293C13.8752 5 15.2502 5.69091 16.0669 6.83727C16.5968 7.57541 16.8399 8.31286 16.8399 9.45921V9.75743ZM10.6064 17.6426C10.6064 17.2901 10.9055 17.1286 11.182 17.0595C11.5055 16.9855 13.4765 16.9855 13.8 17.0595C14.0765 17.1286 14.3756 17.2901 14.3756 17.6426C14.3595 17.9782 14.1775 18.2757 13.9261 18.4646C13.6 18.7396 13.2174 18.9137 12.8174 18.9765C12.5962 19.0075 12.3788 19.0082 12.1653 18.9765C11.7646 18.9137 11.382 18.7396 11.0566 18.4639C10.8045 18.2757 10.6225 17.9782 10.6064 17.6426Z" fill="#FF3B30"/>
</g>
</svg>
