<svg width="16" height="17" viewBox="0 0 16 17" fill="none" xmlns="http://www.w3.org/2000/svg">
<path d="M15.4437 5.38423L6.49452 16.1827C6.08381 16.6731 5.47856 16.9489 4.83007 16.9591L1.26337 17C1.06883 17 0.906705 16.8774 0.863472 16.7037L0.0528599 13.4243C-0.0876462 12.8216 0.0528599 12.1984 0.46357 11.7182L6.80796 4.05613C6.91604 3.93354 7.11059 3.91412 7.24029 4.00505L9.9099 5.98698C10.0828 6.11979 10.3206 6.19131 10.5692 6.16066C11.0988 6.09936 11.4555 5.64985 11.4014 5.16969C11.369 4.9245 11.2393 4.72018 11.0664 4.56694C11.0123 4.52607 8.47242 2.62587 8.47242 2.62587C8.3103 2.50327 8.27787 2.27852 8.40757 2.1263L9.41273 0.909553C10.3422 -0.204008 11.9635 -0.30617 13.2712 0.664365L14.7736 1.77793C15.3896 2.22744 15.8004 2.81997 15.9409 3.44316C16.103 4.12866 15.93 4.80191 15.4437 5.38423Z" fill="#252836"/>
</svg>
