<svg width="20" height="20" viewBox="0 0 20 20" fill="none" xmlns="http://www.w3.org/2000/svg">
<mask id="mask0" style="mask-type:alpha" maskUnits="userSpaceOnUse" x="0" y="0" width="20" height="20">
<rect width="20" height="20" fill="#C4C4C4"/>
</mask>
<g mask="url(#mask0)">
<path fill-rule="evenodd" clip-rule="evenodd" d="M2.09711 3.74784C2.37458 3.28841 3.9034 1.61734 4.99438 1.66778C5.3205 1.69481 5.60878 1.8921 5.84302 2.12091C6.38085 2.6461 7.92047 4.63247 8.00786 5.05046C8.22047 6.07562 6.99886 6.66658 7.37273 7.69985C8.32587 10.0321 9.9682 11.6744 12.3015 12.6266C13.3339 13.0004 13.9249 11.7789 14.9501 11.9924C15.3672 12.0798 17.3546 13.6193 17.8798 14.1571C18.1078 14.3904 18.3059 14.6796 18.333 15.0057C18.3735 16.1543 16.5988 17.7046 16.2528 17.9028C15.4366 18.4866 14.3718 18.4767 13.0736 17.8731C9.45109 16.366 3.66196 10.6862 2.12684 6.92692C1.53946 5.63601 1.49892 4.564 2.09711 3.74784Z" stroke="#252836" stroke-opacity="0.7" stroke-width="1.5" stroke-linecap="round" stroke-linejoin="round"/>
</g>
</svg>
