<svg width="24" height="24" viewBox="0 0 24 24" fill="none" xmlns="http://www.w3.org/2000/svg">
<mask id="mask0" mask-type="alpha" maskUnits="userSpaceOnUse" x="0" y="0" width="24" height="24">
<rect width="24" height="24" fill="#EEEAEA"/>
</mask>
<g mask="url(#mask0)">
<circle cx="12" cy="12" r="12" fill="#B0B0B0"/>
<ellipse cx="12.0035" cy="7.97699" rx="3.78482" ry="3.97699" stroke="#FAFAFA" stroke-width="1.5" stroke-linecap="round" stroke-linejoin="round"/>
<path fill-rule="evenodd" clip-rule="evenodd" d="M6.00001 17.4852C5.999 17.2056 6.0585 16.9295 6.17403 16.6776C6.53656 15.9157 7.55889 15.5119 8.40721 15.3291C9.01902 15.1919 9.63928 15.1002 10.2634 15.0548C11.4188 14.9482 12.581 14.9482 13.7364 15.0548C14.3604 15.1008 14.9807 15.1924 15.5926 15.3291C16.4409 15.5119 17.4632 15.8776 17.8258 16.6776C18.0581 17.191 18.0581 17.787 17.8258 18.3004C17.4632 19.1004 16.4409 19.4661 15.5926 19.6413C14.9815 19.7842 14.361 19.8784 13.7364 19.9232C12.796 20.007 11.8511 20.0222 10.9087 19.9689C10.6912 19.9689 10.4809 19.9689 10.2634 19.9232C9.64112 19.879 9.02302 19.7847 8.41447 19.6413C7.55889 19.4661 6.54381 19.1004 6.17403 18.3004C6.05909 18.0456 5.99965 17.7671 6.00001 17.4852Z" stroke="#FAFAFA" stroke-width="1.5" stroke-linecap="round" stroke-linejoin="round"/>
</g>
</svg>
