<svg width="16" height="20" viewBox="0 0 16 20" fill="none" xmlns="http://www.w3.org/2000/svg">
<ellipse cx="8.0032" cy="5.80929" rx="4.20535" ry="4.14269" stroke="#252836" stroke-opacity="0.7" stroke-width="1.5" stroke-linecap="round" stroke-linejoin="round"/>
<path fill-rule="evenodd" clip-rule="evenodd" d="M1.33302 15.7136C1.33189 15.4224 1.39801 15.1348 1.52637 14.8724C1.92918 14.0788 3.06511 13.6582 4.00769 13.4677C4.68748 13.3248 5.37665 13.2293 6.07009 13.182C7.35393 13.0709 8.64518 13.0709 9.92902 13.182C10.6224 13.2299 11.3115 13.3253 11.9914 13.4677C12.934 13.6582 14.0699 14.0391 14.4727 14.8724C14.7309 15.4072 14.7309 16.028 14.4727 16.5628C14.0699 17.3961 12.934 17.7771 11.9914 17.9596C11.3124 18.1084 10.623 18.2066 9.92902 18.2532C8.88408 18.3405 7.83426 18.3564 6.78709 18.3008C6.5454 18.3008 6.31177 18.3008 6.07009 18.2532C5.3787 18.2071 4.69191 18.109 4.01575 17.9596C3.06511 17.7771 1.93724 17.3961 1.52637 16.5628C1.39866 16.2974 1.33261 16.0073 1.33302 15.7136Z" stroke="#252836" stroke-opacity="0.7" stroke-width="1.5" stroke-linecap="round" stroke-linejoin="round"/>
</svg>
